HIERARCHY
ROOT ROOT
{
	OFFSET 0.000000 56.020000 -5.659234
	CHANNELS 6 Xposition Yposition Zposition Xrotation Yrotation Zrotation 
	JOINT C_spine0001_bind_JNT
	{
		OFFSET 0.000000 1.618999 0.000000
		CHANNELS 3 Xrotation Yrotation Zrotation
		JOINT C_spine0002_bind_JNT
		{
			OFFSET 0.000000 4.942001 0.000001
			CHANNELS 3 Xrotation Yrotation Zrotation
			JOINT C_spine0003_bind_JNT
			{
				OFFSET 0.000000 4.942001 -0.000000
				CHANNELS 3 Xrotation Yrotation Zrotation
				JOINT C_neck0001_bind_JNT
				{
					OFFSET 0.000000 17.026009 -0.000000
					CHANNELS 3 Xrotation Yrotation Zrotation
					JOINT C_neck0002_bind_JNT
					{
						OFFSET 0.000000 3.249985 0.000000
						CHANNELS 3 Xrotation Yrotation Zrotation
						JOINT C_head_bind_JNT
						{
							OFFSET 0.000000 5.278008 0.000000
							CHANNELS 3 Xrotation Yrotation Zrotation
							End Site
							{
								OFFSET 0.000000 0.000000 0.000000
							}
						}
					}
				}
				JOINT L_clavicle_bind_JNT
				{
					OFFSET 4.590000 12.067001 0.834000
					CHANNELS 3 Xrotation Yrotation Zrotation
					JOINT L_armUpper0001_bind_JNT
					{
						OFFSET 7.812635 0.512001 -3.452945
						CHANNELS 3 Xrotation Yrotation Zrotation
						JOINT L_armLower0001_bind_JNT
						{
							OFFSET 15.265892 -6.552116 -0.058157
							CHANNELS 3 Xrotation Yrotation Zrotation
							JOINT L_hand0001_bind_JNT
							{
								OFFSET 14.747667 -6.369995 5.049225
								CHANNELS 3 Xrotation Yrotation Zrotation
								End Site
								{
									OFFSET 0.000000 0.000000 0.000000
								}
							}
						}
					}
				}
				JOINT R_clavicle_bind_JNT
				{
					OFFSET -4.590000 12.067001 0.834000
					CHANNELS 3 Xrotation Yrotation Zrotation
					JOINT R_armUpper0001_bind_JNT
					{
						OFFSET -7.812635 0.512001 -3.452945
						CHANNELS 3 Xrotation Yrotation Zrotation
						JOINT R_armLower0001_bind_JNT
						{
							OFFSET -15.265890 -6.552124 -0.058160
							CHANNELS 3 Xrotation Yrotation Zrotation
							JOINT R_hand0001_bind_JNT
							{
								OFFSET -14.746784 -6.369629 5.048937
								CHANNELS 3 Xrotation Yrotation Zrotation
								End Site
								{
									OFFSET 0.000000 0.000000 0.000000
								}
							}
						}
					}
				}
			}
		}
	}
	JOINT C_pelvis0001_bind_JNT
	{
		OFFSET -0.000000 0.000000 0.000000
		CHANNELS 3 Xrotation Yrotation Zrotation
		JOINT L_legUpper0001_bind_JNT
		{
			OFFSET 6.599999 -6.027000 0.539000
			CHANNELS 3 Xrotation Yrotation Zrotation
			JOINT L_legLower0001_bind_JNT
			{
				OFFSET -0.140713 -19.187443 0.040261
				CHANNELS 3 Xrotation Yrotation Zrotation
				JOINT L_foot0001_bind_JNT
				{
					OFFSET -0.132215 -18.028637 -1.138370
					CHANNELS 3 Xrotation Yrotation Zrotation
					JOINT L_foot0002_bind_JNT
					{
						OFFSET 0.007014 -4.693133 9.886524
						CHANNELS 3 Xrotation Yrotation Zrotation
						End Site
						{
							OFFSET 0.000000 0.000000 0.000000
						}
					}
				}
			}
		}
		JOINT R_legUpper0001_bind_JNT
		{
			OFFSET -6.599999 -6.027000 0.539000
			CHANNELS 3 Xrotation Yrotation Zrotation
			JOINT R_legLower0001_bind_JNT
			{
				OFFSET 0.140710 -19.187164 0.040550
				CHANNELS 3 Xrotation Yrotation Zrotation
				JOINT R_foot0001_bind_JNT
				{
					OFFSET 0.132215 -18.028633 -1.138362
					CHANNELS 3 Xrotation Yrotation Zrotation
					JOINT R_foot0002_bind_JNT
					{
						OFFSET -0.007014 -4.693128 9.886505
						CHANNELS 3 Xrotation Yrotation Zrotation
						End Site
						{
							OFFSET 0.000000 0.000000 0.000000
						}
					}
				}
			}
		}
	}
}
MOTION
Frames: 6
Frame Time: 0.033333
0.000000 48.943386 0.000000 -0.000392 -2.237286 0.014369 1.341253 1.095901 -5.609078 9.851167 -0.196788 -5.679786 3.495012 1.426966 -2.692357 -0.129917 -0.595959 -6.108000 2.596738 -6.806250 3.248249 36.036163 11.898174 13.026626 -0.806189 15.103576 -2.464682 -0.754813 10.461725 -50.567562 6.782720 -15.286208 -2.759510 13.357916 -33.779228 -17.304609 -0.244901 -11.874968 3.507514 5.730839 -10.709352 55.377377 22.004988 25.058323 -4.564983 -7.474510 34.849709 28.887375 3.398116 0.500451 -6.490469 -9.635742 0.810568 4.937506 25.617014 9.743731 -4.851970 -18.112259 1.494672 1.702046 -1.244290 0.652346 -0.764959 -13.473789 -1.317528 -17.791618 26.661320 -7.270194 3.101335 18.157125 5.925640 21.229616 -17.824221 0.473613 0.748283 
0.232509 48.560406 0.145441 0.019876 -0.882043 -0.028412 -0.003841 0.039931 -5.874142 9.602546 0.107693 -5.789682 4.114237 0.761761 -3.031612 -0.335765 -0.818212 -5.799810 2.749667 -7.611459 3.421249 39.455841 14.055795 12.374359 -0.314917 15.408200 -1.403491 -2.080499 9.059271 -50.884319 6.726593 -14.109456 -2.866747 12.121812 -34.486866 -18.474812 0.138539 -12.601562 3.206166 6.264441 -11.341505 56.150337 23.642807 25.915756 -4.132773 -9.167323 34.356297 27.346031 2.235328 -0.864613 -6.309049 -9.378652 0.824690 5.002735 28.774830 10.749427 -5.970033 -19.981615 1.102824 1.540468 -1.174538 -0.260293 -0.245910 -13.918994 0.375176 -18.041180 28.231617 -6.379009 4.184889 19.576864 6.117665 21.754255 -17.866230 1.063581 -0.951480 
0.748751 48.545200 0.255870 0.016154 -0.450420 -0.016656 -0.066978 -0.095279 -6.228309 9.811949 -0.154059 -5.556039 4.436459 0.318373 -2.751864 0.208141 -1.013016 -6.162375 2.703641 -7.361697 3.823784 40.048691 13.745853 12.212504 -0.350100 15.661269 -1.656467 -2.721571 8.682439 -51.035362 5.931680 -13.768556 -2.632888 11.908463 -34.478172 -18.439636 0.107573 -12.478191 3.333190 6.258063 -11.934312 55.872910 24.510391 26.041172 -4.579532 -8.901655 33.532814 27.130932 2.324215 -0.782166 -6.449241 -10.046222 0.206154 4.531790 30.287428 10.566433 -6.131894 -20.965233 1.069532 2.120445 -1.050157 0.063199 -0.391520 -15.278138 0.289269 -18.915079 28.824709 -6.505458 4.082806 22.846556 7.477359 21.961967 -18.382986 1.050666 -1.342159 
0.680757 48.535946 0.395179 0.015595 0.116195 -0.034316 -0.329372 -0.513368 -6.662448 9.843970 -0.429463 -5.409481 4.098875 0.166595 -2.464976 0.410251 -1.071048 -6.154076 2.556606 -7.088049 3.501102 40.655159 13.650565 11.969215 -0.091287 15.557906 -1.931615 -2.963719 8.124982 -50.789291 5.867214 -13.283512 -2.626998 12.710212 -34.944572 -17.921825 0.237565 -12.435418 2.954057 7.059721 -12.289655 56.210518 24.484816 25.631689 -4.869436 -8.544622 32.902767 26.597303 2.087588 -1.213969 -6.903509 -9.604833 0.279680 5.277619 30.329966 9.953153 -6.154759 -21.383179 1.172540 2.039125 -1.018063 0.285026 -0.415919 -15.772757 0.567320 -18.820087 29.189713 -6.393317 4.477305 22.882071 7.989011 22.048462 -17.518612 1.156324 -1.785525 
0.688214 48.528782 0.527677 0.017939 0.061710 -0.022211 -0.633544 -0.128009 -7.331799 9.967780 -0.737887 -5.088852 4.286177 -0.103812 -2.599395 0.612549 -0.830107 -5.862840 2.605699 -7.182401 3.595546 40.832844 13.662573 11.661121 -0.512825 15.611510 -1.439710 -2.745542 8.097038 -51.220684 6.075118 -13.072020 -2.169828 13.097268 -35.353729 -17.560228 0.104458 -12.098819 3.271992 7.852582 -12.799563 55.867294 24.223398 25.550428 -4.710347 -8.321110 32.617748 26.115423 1.967244 -0.726573 -7.401124 -9.404347 -0.087455 5.774809 30.565002 9.784355 -6.110228 -21.513769 1.236968 1.755544 -1.400796 -0.054357 -0.295745 -16.472351 0.543131 -18.554323 28.680058 -6.297279 4.126190 23.139130 8.443368 22.237549 -17.318703 1.346457 -1.902784 
0.598332 48.487686 0.654479 0.016303 -0.417467 -0.017982 -0.623030 0.592264 -7.660096 10.063964 -0.778847 -4.880841 4.176574 -0.350985 -2.350157 0.634615 -0.913091 -5.963958 2.513890 -7.088496 3.612596 41.273746 13.533703 11.578475 -0.680656 15.341125 -1.414416 -2.626297 7.909183 -51.109474 5.652221 -12.992166 -2.442913 13.408438 -35.646572 -17.241674 0.053214 -12.221520 3.181057 8.225448 -13.096779 55.861622 24.082220 25.641039 -4.907614 -8.133151 32.247414 25.929359 2.137944 0.123813 -7.693216 -9.898497 -0.119180 6.343037 31.280441 9.080812 -6.173650 -21.842041 1.265619 1.697979 -1.380699 0.092224 -0.243021 -16.919727 0.407920 -18.457275 27.954256 -6.258780 4.188889 22.787472 8.579837 22.585646 -17.453579 1.264598 -1.990389 
